# xmcd
#
# Track frame offsets: 
#        150
#        8920
#        13608
#        33760
#        53118
#        68603
#        91305
#        114717
#        130139
#
# Disc length: 2072 seconds
#
# Revision: 0
# Processed by: cddbd v1.5.2PL0 Copyright (c) Steve Scherf et al.
# Submitted via: ExactAudioCopy v0.99pb5
#
DISCID=68081609
DTITLE=Pat Travers  - Black Pearl  FLAC
DYEAR=1900
DGENRE=
TTITLE0=I La La La Love You
TTITLE1=I'd Rather See You Dead
TTITLE2=Stand Up
TTITLE3=Who'll Take The Fall
TTITLE4=The Fifth
TTITLE5=Misty Morning
TTITLE6=Can't Stop The Heartache
TTITLE7=Amgwanna Kick Booty
TTITLE8=Rockin'
EXTD=
EXTT0=
EXTT1=
EXTT2=
EXTT3=
EXTT4=
EXTT5=
EXTT6=
EXTT7=
EXTT8=
PLAYORDER=
